<svg id="ZigCheck-logo" xmlns="http://www.w3.org/2000/svg" viewBox="0 0 413.01 83.25">
  <path d="M0,66.23v-12.65L20.59,19.99H.78V6.2H40.48v12.74L20.23,52.45h20.68v13.79H0Z"/>
  <path d="M55.41,17.71c-2.68,0-4.97-.86-6.9-2.57-1.92-1.71-2.88-3.82-2.88-6.33,0-1.75,.46-3.27,1.39-4.58s2.15-2.34,3.67-3.1c1.51-.75,3.08-1.13,4.71-1.13,1.8,0,3.44,.41,4.93,1.22,1.48,.82,2.68,1.89,3.58,3.23s1.36,2.79,1.36,4.36c0,1.75-.48,3.29-1.44,4.63s-2.18,2.39-3.66,3.14c-1.48,.76-3.07,1.14-4.76,1.14h0Zm7.16,49.21c-3.9,0-7.06-.7-9.47-2.09s-4.17-3.29-5.28-5.67-1.65-5.06-1.65-8.03V22.52h18.41v26.09c0,1.34,.4,2.37,1.18,3.1,.79,.73,1.73,1.09,2.84,1.09s2.35-.35,3.57-1.05l.97,12.13c-1.29,.99-2.94,1.75-4.98,2.27-2.04,.53-3.9,.79-5.58,.79h0Z"/>
  <path d="M103.14,83.24c-2.21,0-4.27-.15-6.19-.44-1.92-.29-3.44-.64-4.54-1.04l1.39-12.65c1.05,.23,2.19,.42,3.41,.57,1.22,.14,2.41,.22,3.57,.22,3.9,0,6.71-.81,8.42-2.44,1.72-1.63,2.58-4.13,2.58-7.5v-4.1c-1.63,3.2-3.64,5.56-6.02,7.07s-5.38,2.27-8.99,2.27c-4.13,0-7.85-.94-11.17-2.84-3.32-1.89-5.92-4.48-7.8-7.77-1.9-3.28-2.84-7.05-2.84-11.3s.94-7.97,2.84-11.17c1.89-3.2,4.49-5.7,7.8-7.51,3.32-1.8,7.04-2.71,11.17-2.71,2.91,0,5.7,.77,8.38,2.32s4.71,4.03,6.11,7.46v-9.16h18.32V56.03c0,9.31-2.29,16.17-6.89,20.59-4.59,4.42-11.11,6.63-19.55,6.63h0Zm-.7-31.86c2.5,0,4.59-.78,6.28-2.35,1.68-1.57,2.53-3.46,2.53-5.67s-.85-4.04-2.53-5.5c-1.69-1.46-3.78-2.18-6.28-2.18-2.68,0-4.87,.76-6.59,2.27-1.72,1.52-2.57,3.38-2.57,5.59s.85,4,2.57,5.54,3.91,2.31,6.59,2.31h0Z"/>
  <path d="M167.46,67.62c-6.28,0-11.77-1.26-16.45-3.8-4.68-2.53-8.32-6.09-10.91-10.69-2.58-4.59-3.88-9.95-3.88-16.06s1.36-11.84,4.06-16.67c2.71-4.83,6.43-8.62,11.17-11.39,4.74-2.76,10.19-4.14,16.36-4.14,6.86,0,12.24,1.34,16.14,4.02l-2.36,13.87c-1.68-.81-3.44-1.41-5.28-1.79-1.83-.38-3.56-.56-5.19-.56-4.77,0-8.53,1.42-11.26,4.27-2.74,2.85-4.1,6.81-4.1,11.87,0,4.77,1.32,8.51,3.97,11.21s6.33,4.06,11.04,4.06c1.86,0,3.56-.17,5.1-.52,1.54-.35,3.45-.99,5.72-1.92l2.44,13.79c-5.06,2.96-10.59,4.45-16.57,4.45h0Z"/>
  <path d="M189.88,66.23V8.72l18.41-2.7V31.5c1.22-3.03,3.15-5.38,5.76-7.07,2.62-1.69,5.76-2.53,9.42-2.53,5.7,0,10.13,1.96,13.27,5.89,3.14,3.93,4.72,9.47,4.72,16.62v21.82h-18.41v-22.77c0-5.18-2.09-7.77-6.28-7.77-2.5,0-4.54,.92-6.11,2.75s-2.36,4.29-2.36,7.37v20.42h-18.42Z"/>
  <path d="M276.88,54.71c1.68,0,3.47-.17,5.37-.52,1.89-.35,3.82-.99,5.8-1.92l2.09,11.26c-2.15,1.11-4.5,1.95-7.02,2.53-2.54,.58-5.43,.87-8.68,.87-5.88,0-10.81-.96-14.79-2.88s-6.99-4.57-9.03-7.94-3.05-7.27-3.05-11.69,1.09-8.49,3.27-11.87c2.18-3.37,5.11-5.99,8.77-7.85s7.7-2.79,12.13-2.79c6.58,0,11.6,2.05,15.1,6.15,3.49,4.1,5.23,9.93,5.23,17.49l-26,3.32c1.92,3.9,5.52,5.85,10.82,5.85h-.01Zm-12.21-13.89l13.7-2.88c-.23-1.86-.87-3.24-1.92-4.14-1.05-.9-2.36-1.35-3.93-1.35-2.33,0-4.18,.8-5.55,2.4-1.36,1.6-2.14,3.59-2.31,5.98h0Z"/>
  <path d="M319.72,66.93c-4.89,0-9.11-.96-12.65-2.88-3.55-1.92-6.28-4.55-8.2-7.9-1.92-3.34-2.88-7.2-2.88-11.56s.99-8.17,2.97-11.6c1.97-3.43,4.76-6.14,8.33-8.12,3.58-1.98,7.73-2.97,12.44-2.97,5.64,0,10.09,1.16,13.35,3.49l-1.92,11.87c-1.46-.64-2.82-1.09-4.1-1.35-1.29-.26-2.51-.39-3.66-.39-2.85,0-5.11,.8-6.77,2.4-1.65,1.6-2.49,3.77-2.49,6.5s.82,4.84,2.44,6.5,3.78,2.49,6.46,2.49c2.33,0,5.06-.49,8.21-1.48l1.65,12.21c-1.92,.93-3.91,1.63-5.98,2.09s-4.47,.7-7.19,.7h0Z"/>
  <path d="M358.03,66.23h-18.41V8.72l18.41-2.7v29.93l20.51-16.67,9.42,12.13-12.31,10.3c.82,4.13,2.01,7.03,3.58,8.68,1.57,1.66,3.61,2.49,6.11,2.49,1.05,0,2.3-.17,3.76-.53l-1.31,14.05c-1.1,.23-2.09,.38-2.96,.44-.87,.06-1.72,.09-2.54,.09-5.76,0-10.31-1.38-13.66-4.15-3.34-2.76-5.8-6.82-7.37-12.17l-3.23,2.79v12.83Z"/>
  <path d="M403.23,66.75c-3.2,0-5.65-.86-7.33-2.57-1.69-1.71-2.53-3.82-2.53-6.32s.9-4.67,2.71-6.33c1.8-1.66,4.18-2.49,7.15-2.49s5.34,.87,7.12,2.62c1.77,1.74,2.66,3.81,2.66,6.2,0,2.67-.82,4.83-2.49,6.46-1.65,1.63-4.08,2.44-7.29,2.44h0Z"/>
</svg>